<?xml version="1.0" encoding="UTF-8"?><svg id="Layer_2" xmlns="http://www.w3.org/2000/svg" viewBox="0 0 42 29"><g id="Layer_2-2"><g id="uuid-a4de6f2b-4eab-465a-ad82-bd1894ebc4ff"><g id="Layer_1-2"><rect width="42" height="29"/><path d="M26.5,6.94c-.19-.02-.39-.02-.58-.02-1.87,0-3.65.75-4.92,2.12-1.27-1.34-3.04-2.12-4.89-2.12-3.72,0-6.74,3.02-6.74,6.69v8.45h3.63v-8.32c0-1.53,1.27-2.95,2.75-3.09.1,0,.22-.02.32-.02,1.68,0,3.04,1.36,3.04,3.04v8.42h3.7v-8.37c0-1.53,1.27-2.95,2.75-3.09.1,0,.22-.02.32-.02,1.68,0,3.04,1.36,3.07,3.02v8.45h3.7v-8.32c0-1.7-.63-3.31-1.75-4.58-1.14-1.29-2.7-2.07-4.38-2.22Z" style="fill:#fff; fill-rule:evenodd;"/></g></g></g></svg>