<?xml version="1.0" encoding="UTF-8"?><svg id="Layer_2" xmlns="http://www.w3.org/2000/svg" viewBox="0 0 42 29"><g id="Layer_2-2"><g id="uuid-2bd327c0-fa5d-4c4c-bfb4-a74aa88ea729"><g id="Layer_1-2"><rect width="42" height="29" style="fill:#0e1414;"/><path d="M12.39,10.84v.75c.47,0,.93.1,1.35.26.44.18.83.44,1.14.75.34.34.6.73.78,1.14s.26.88.26,1.35h.7c0-.93.36-1.82,1.04-2.49.67-.65,1.56-1.04,2.49-1.04v-.75c-.47,0-.93-.1-1.35-.26-.44-.18-.83-.44-1.14-.75-.34-.34-.6-.73-.78-1.14s-.26-.88-.26-1.35h-.7c0,.93-.36,1.82-1.04,2.49s-1.56,1.04-2.49,1.04ZM21.99,6.02h-6.07v-2.26h6.07c4.28,0,7.63,3.35,7.63,7.45s-3.37,7.45-7.63,7.45h-3.53v6.59h-2.54v-8.85h6.07c2.96,0,5.08-2.1,5.08-5.19s-2.13-5.19-5.08-5.19Z" style="fill:#ffdd34; fill-rule:evenodd;"/></g></g></g></svg>