<?xml version="1.0" encoding="UTF-8"?><svg id="Layer_2" xmlns="http://www.w3.org/2000/svg" viewBox="0 0 512.04 502.44"><g id="Layer_1-2"><path d="M256.16,0C114.77,0,.3,112.37.05,251.11h-.05v194.38h.05c.07,31.46,26.09,56.95,58.17,56.95h197.96c141.41-.09,255.86-112.45,255.86-251.11,0-138.73-114.6-251.11-256.11-251.11l.23-.23Z" style="fill:#51a2da;"/><path d="M308.21,103.32c-39.94,0-75.22,29.49-80.11,68.18-.33,3.24-.42,5.57-.44,8.51l.05,158.19c0,30.35-23.16,51-52.1,51s-52.32-22.71-52.32-51.05c.48-31.11,25.86-50.84,55.47-51.7h.16l30.06-.27v-41.77l-30.06.22c-53.9-.48-96.68,40.92-98.24,93.54,0,51.17,42.87,92.89,94.92,92.89,49.1,0,89.95-37.62,94.42-84.69.64-16.02.33-37.17.33-37.17.09-8.71-.14-5.58-.05-22.87l37.29-.27c28.85.2,28.53-42.43-.33-41.84l-36.97.27c0-21.46.34-42.79,0-64.28.03-18.59,17.98-35.01,37.89-35.01s40.99,9.75,40.99,35.01c0,3.61-.07,5.71-.28,7.05-2.22,11.72,5.94,22.91,17.96,24.6,12.02,1.67,23.06-6.85,24.25-18.7.69-4.68.66-8.82.66-12.95,0-44.54-40.59-76.83-83.59-76.83l.03-.07Z" style="fill:#fff;"/></g></svg>